<?xml version="1.0" encoding="UTF-8" standalone="no"?>
<!-- Created with Inkscape (http://www.inkscape.org/) -->

<svg
   xmlns:dc="http://purl.org/dc/elements/1.1/"
   xmlns:cc="http://creativecommons.org/ns#"
   xmlns:rdf="http://www.w3.org/1999/02/22-rdf-syntax-ns#"
   xmlns:svg="http://www.w3.org/2000/svg"
   xmlns="http://www.w3.org/2000/svg"
   xmlns:sodipodi="http://sodipodi.sourceforge.net/DTD/sodipodi-0.dtd"
   xmlns:inkscape="http://www.inkscape.org/namespaces/inkscape"
   version="1.1"
   id="svg31696"
   xml:space="preserve"
   width="800"
   height="800"
   viewBox="0 0 800 800"
   sodipodi:docname="swirl-circular-lines.svg"
   inkscape:version="0.92.4 (5da689c313, 2019-01-14)"><metadata
     id="metadata31702"><rdf:RDF><cc:Work
         rdf:about=""><dc:format>image/svg+xml</dc:format><dc:type
           rdf:resource="http://purl.org/dc/dcmitype/StillImage" /><dc:title></dc:title></cc:Work></rdf:RDF></metadata><defs
     id="defs31700"><clipPath
       clipPathUnits="userSpaceOnUse"
       id="clipPath31712"><path
         d="M 0,600 H 600 V 0 H 0 Z"
         id="path31710"
         inkscape:connector-curvature="0" /></clipPath><clipPath
       clipPathUnits="userSpaceOnUse"
       id="clipPath31720"><path
         d="M 184.93,420.515 H 392.123 V 243.757 H 184.93 Z"
         id="path31718"
         inkscape:connector-curvature="0" /></clipPath><clipPath
       clipPathUnits="userSpaceOnUse"
       id="clipPath31734"><path
         d="M 144.944,458.357 H 425.077 V 146.251 H 144.944 Z"
         id="path31732"
         inkscape:connector-curvature="0" /></clipPath><clipPath
       clipPathUnits="userSpaceOnUse"
       id="clipPath31748"><path
         d="m 119.951,493.785 h 333.56 V 169.487 h -333.56 z"
         id="path31746"
         inkscape:connector-curvature="0" /></clipPath><clipPath
       clipPathUnits="userSpaceOnUse"
       id="clipPath31762"><path
         d="M 159.675,525.69 H 482.259 V 160.073 H 159.675 Z"
         id="path31760"
         inkscape:connector-curvature="0" /></clipPath><clipPath
       clipPathUnits="userSpaceOnUse"
       id="clipPath31776"><path
         d="M 98.0278,502.622 H 462.035 V 157.582 H 98.0278 Z"
         id="path31774"
         inkscape:connector-curvature="0" /></clipPath><clipPath
       clipPathUnits="userSpaceOnUse"
       id="clipPath31790"><path
         d="M 92.4766,507.959 H 466.419 V 174.838 H 92.4766 Z"
         id="path31788"
         inkscape:connector-curvature="0" /></clipPath><clipPath
       clipPathUnits="userSpaceOnUse"
       id="clipPath31804"><path
         d="M 80.1094,519.58 H 475.81 V 154.403 H 80.1094 Z"
         id="path31802"
         inkscape:connector-curvature="0" /></clipPath><clipPath
       clipPathUnits="userSpaceOnUse"
       id="clipPath31818"><path
         d="M 156.572,541.958 H 495.484 V 159.12 H 156.572 Z"
         id="path31816"
         inkscape:connector-curvature="0" /></clipPath><clipPath
       clipPathUnits="userSpaceOnUse"
       id="clipPath31832"><path
         d="m 240.353,564.957 h 274.92 V 144.979 h -274.92 z"
         id="path31830"
         inkscape:connector-curvature="0" /></clipPath></defs><sodipodi:namedview
     pagecolor="#ffffff"
     bordercolor="#666666"
     borderopacity="1"
     objecttolerance="10"
     gridtolerance="10"
     guidetolerance="10"
     inkscape:pageopacity="0"
     inkscape:pageshadow="2"
     inkscape:window-width="1920"
     inkscape:window-height="1018"
     id="namedview31698"
     showgrid="false"
     inkscape:zoom="0.74099112"
     inkscape:cx="584.74576"
     inkscape:cy="359.32203"
     inkscape:window-x="-8"
     inkscape:window-y="-8"
     inkscape:window-maximized="1"
     inkscape:current-layer="g31704" /><g
     id="g31704"
     inkscape:groupmode="layer"
     inkscape:label="abstract-lines-114-publicdomainvectors.org"
     transform="matrix(1.3333333,0,0,-1.3333333,0,800)"><g
       id="g31706"><g
         id="g31708"
         clip-path="url(#clipPath31712)"><g
           id="g31714"><g
             id="g31716" /><g
             id="g31726"><g
               clip-path="url(#clipPath31720)"
               id="g31724"><path
                 d="m 290.462,361.949 c 2.213,-0.925 4.305,-1.994 6.238,-3.202 -15.031,-0.298 -30.783,-9.283 -39.355,-23.759 -8.991,-15.201 -9.725,-36.235 -0.901,-53.401 9.205,-17.841 28.664,-31.225 50.204,-33.488 22.338,-2.344 46.787,7.303 62.515,25.746 16.352,19.218 23.161,48.047 16.059,74.563 -7.454,27.694 -30.394,52.713 -60.119,62.584 -31.014,10.268 -69.07,3.547 -96.188,-18.908 -27.965,-23.199 -43.384,-62.737 -38.158,-100.487 -1,-4.771 -1.71,-9.656 -2.105,-14.64 -10.156,38.697 0.97,81.945 27.299,109.733 25.653,26.992 64.864,38.84 98.852,31.86 32.607,-6.767 59.927,-30.426 71.171,-58.825 10.739,-27.217 6.997,-58.568 -7.993,-80.912 -14.435,-21.471 -39.159,-34.725 -63.19,-35.051 -23.214,-0.285 -45.671,11.436 -57.853,29.311 -11.726,17.237 -13.774,39.934 -6.147,57.605 7.329,16.872 23.26,28.84 39.671,31.271"
                 style="fill:#ed0e58;fill-opacity:1;fill-rule:nonzero;stroke:none"
                 id="path31722"
                 inkscape:connector-curvature="0" /></g></g></g><g
           id="g31728"><g
             id="g31730" /><g
             id="g31740"><g
               clip-path="url(#clipPath31734)"
               id="g31738"><path
                 d="m 365.599,313.197 c -1.913,-2.417 -3.991,-4.613 -6.161,-6.595 8.307,24.433 -3.367,57.156 -29.316,71.841 -13.754,7.773 -30.954,10.727 -47.542,7.566 -17.096,-3.289 -33.513,-13.103 -44.992,-27.495 -11.758,-14.764 -18.261,-34.336 -17.563,-54.048 0.721,-20.103 8.933,-40.347 22.922,-55.816 14.238,-15.711 34.432,-26.563 56.121,-29.854 22.061,-3.314 45.764,1.106 65.862,12.64 20.497,11.793 37.407,31.085 46.688,54.025 9.484,23.555 10.988,51.185 3.406,76.879 -7.834,26.442 -25.42,50.988 -49.585,67.433 -24.872,16.908 -56.849,25.18 -88.41,21.799 -32.345,-3.497 -64.226,-19.355 -87.222,-44.266 -23.385,-25.367 -37.489,-60.036 -38.416,-95.383 -0.947,-35.679 11.47,-72.012 34.161,-100.194 22.802,-28.35 56.023,-48.596 91.999,-56.397 6.405,-3.424 13.104,-6.468 20.092,-9.081 -38.167,3.321 -75.121,19.792 -102.562,45.941 -27.282,26.037 -45.181,61.844 -49.249,98.928 -4.008,36.818 5.684,74.872 26.423,104.598 20.453,29.295 51.557,50.418 84.978,58.629 32.649,8.025 67.427,3.766 95.932,-10.628 27.688,-14.011 49.566,-37.505 61.341,-64.316 11.436,-26.064 13.507,-55.368 6.631,-81.404 -6.725,-25.374 -21.949,-47.891 -41.926,-63.024 -19.592,-14.806 -43.895,-22.662 -67.527,-22.185 -23.241,0.504 -46.022,9.07 -63.217,23.625 -16.917,14.327 -28.489,34.515 -32.163,55.665 -3.593,20.782 0.448,42.501 10.794,59.935 10.131,17.033 26.241,29.951 44.084,35.957 17.332,5.843 36.275,5.193 52.252,-1.192 15.436,-6.181 28.149,-17.688 35.529,-31.363 7.116,-13.209 9.323,-28.496 6.636,-42.22"
                 style="fill:#ec008c;fill-opacity:1;fill-rule:nonzero;stroke:none"
                 id="path31736"
                 inkscape:connector-curvature="0" /></g></g></g><g
           id="g31742"><g
             id="g31744" /><g
             id="g31754"><g
               clip-path="url(#clipPath31748)"
               id="g31752"><path
                 d="m 359.502,393.159 c 1.682,-3.807 3.06,-7.689 4.144,-11.569 -21.841,26.998 -63.401,39.554 -99.173,27.487 -36.954,-12.536 -65.566,-50.807 -67.376,-91.909 -1.806,-42.137 24.279,-85.879 64.147,-105.557 20.493,-10.107 44.41,-14.354 67.971,-11.776 24.037,2.657 47.888,12.467 67.536,28.329 20.112,16.246 35.927,38.997 44.25,64.837 8.507,26.517 9.145,56.432 0.953,84.519 -8.385,28.749 -26.106,55.653 -50.516,75.267 -24.86,19.983 -56.713,32.343 -89.597,34.232 -66.647,3.764 -135.427,-39.601 -162.274,-102.761 -26.946,-63.601 -11.363,-144.054 36.783,-195.143 3.596,-6.716 7.666,-13.264 12.168,-19.628 -55.674,46.837 -81.652,127.463 -62.107,196.392 9.799,34.483 30.221,65.981 57.689,88.678 27.345,22.516 61.717,36.331 96.512,38.82 34.433,2.446 69.228,-6.188 97.799,-23.694 28.064,-17.251 50.142,-43.022 62.645,-72.048 12.213,-28.367 15.382,-59.818 9.78,-88.673 -5.459,-28.16 -19.218,-53.976 -38.29,-73.502 -18.616,-19.023 -42.401,-32.223 -67.237,-37.944 -24.317,-5.574 -49.819,-4.075 -72.491,3.939 -44.072,15.609 -76.783,57.919 -80.391,102.14 -3.461,43.231 21.348,87.128 58.49,105.306 36.073,17.575 81.763,9.982 108.585,-15.742"
                 style="fill:#f7905b;fill-opacity:1;fill-rule:nonzero;stroke:none"
                 id="path31750"
                 inkscape:connector-curvature="0" /></g></g></g><g
           id="g31756"><g
             id="g31758" /><g
             id="g31768"><g
               clip-path="url(#clipPath31762)"
               id="g31766"><path
                 d="m 159.928,316.79 c 1.871,4.724 3.969,9.293 6.293,13.685 -9.223,-54.94 19.535,-115.822 68.717,-145.26 49.829,-29.761 119.002,-27.212 168.757,6.753 25.477,17.428 46.406,42.563 59.208,71.806 13.035,29.831 17.723,64.223 12.617,97.863 -5.281,34.457 -20.969,68.408 -45.448,95.753 -25.139,28.042 -59.708,49.202 -98.18,58.68 -6.24,3.478 -12.735,6.683 -19.467,9.62 40.833,-5.796 78.853,-24.21 107.728,-50.747 28.117,-25.88 47.755,-59.526 56.571,-94.727 8.589,-34.332 7.022,-70.37 -3.593,-102.457 -10.418,-31.421 -29.591,-59.371 -54.192,-79.787 -47.947,-39.808 -118.772,-49.206 -173.048,-23.67 -53.574,25.252 -89.606,84.826 -85.963,142.488"
                 style="fill:#ec086d;fill-opacity:1;fill-rule:nonzero;stroke:none"
                 id="path31764"
                 inkscape:connector-curvature="0" /></g></g></g><g
           id="g31770"><g
             id="g31772" /><g
             id="g31782"><g
               clip-path="url(#clipPath31776)"
               id="g31780"><path
                 d="m 368.159,261.095 c -3.724,-1.32 -7.485,-2.346 -11.215,-3.102 14.623,10.227 26.049,25.979 31.385,44.052 5.472,18.605 4.488,39.812 -3.387,58.838 -8.117,19.596 -23.67,36.958 -43.597,47.527 -20.537,10.888 -45.816,14.5 -69.838,9.215 -24.625,-5.449 -47.873,-20.328 -63.644,-41.479 -16.029,-21.57 -24.26,-49.604 -22.256,-77.263 2.043,-28.008 14.502,-55.635 34.527,-76.212 20.221,-20.783 48.203,-34.509 77.629,-38.038 29.775,-3.544 61.265,3.279 87.68,19.255 26.836,16.264 48.703,42.165 60.526,72.66 12.083,31.226 13.71,67.615 3.476,101.391 -10.565,34.761 -33.902,67.009 -65.873,88.534 -32.928,22.152 -75.194,32.827 -116.786,27.958 -42.575,-4.996 -84.337,-26.439 -113.945,-59.7 -30.011,-33.761 -47.36,-79.502 -47.375,-125.491 0.033,-46.186 17.416,-92.519 47.52,-127.801 3.847,-8.152 8.272,-16.129 13.283,-23.857 -35.66,32.161 -59.957,77.286 -66.46,124.831 -6.475,47.397 4.882,97.121 31.125,136.342 25.983,38.764 66.35,67.044 110.038,78.241 42.767,10.931 88.487,5.604 125.965,-13.114 36.415,-18.209 65.19,-48.932 80.806,-83.97 15.145,-34.04 18.143,-72.361 9.519,-106.56 -8.437,-33.357 -27.917,-63.183 -53.783,-83.612 -25.454,-20.054 -57.305,-31.265 -88.745,-31.523 -31.049,-0.235 -61.989,10.243 -85.885,29.077 -23.665,18.677 -40.533,45.691 -46.608,74.628 -6.014,28.62 -1.429,59.149 12.314,84.067 13.531,24.483 35.896,43.509 61.092,52.766 24.645,9.022 51.95,8.747 75.249,0.093 22.633,-8.413 41.572,-24.729 52.912,-44.438 10.99,-19.15 14.954,-41.572 11.671,-62.112 -3.186,-19.955 -13.188,-38.295 -27.32,-51.203"
                 style="fill:#ed1443;fill-opacity:1;fill-rule:nonzero;stroke:none"
                 id="path31778"
                 inkscape:connector-curvature="0" /></g></g></g><g
           id="g31784"><g
             id="g31786" /><g
             id="g31796"><g
               clip-path="url(#clipPath31790)"
               id="g31794"><path
                 d="m 394.584,359.587 c -0.113,-4.392 -0.512,-8.689 -1.176,-12.879 -3.98,18.055 -13.576,35.454 -27.608,48.96 -14.4,13.857 -33.543,23.652 -54.267,27.175 -42.72,7.209 -91.903,-15.37 -115.122,-56.097 -23.862,-41.983 -18.494,-100.737 13.673,-139.481 32.758,-39.363 91.579,-56.995 142.649,-42.316 26.103,7.519 50.463,22.817 69.063,43.704 18.914,21.258 32.057,48.519 36.912,77.693 4.939,29.846 1.221,61.967 -11.345,91.096 -12.886,29.843 -35.231,56.718 -63.93,75.332 C 353.988,491.855 317.7,502.282 280.948,501.1 243.423,499.896 205.41,486.562 174.529,462.879 143.206,438.865 119.32,404.25 107.785,365.662 c -11.576,-38.841 -10.683,-81.678 2.412,-120.32 0.48,-8.738 1.526,-17.524 3.189,-26.263 -18.466,37.983 -25.068,81.851 -18.336,123.386 6.73,41.332 26.728,80.32 55.912,109.384 28.861,28.671 66.59,47.644 105.491,53.834 38.16,6.036 77.4,-0.115 110.582,-16.288 32.358,-15.817 59.091,-41.124 76.238,-70.728 16.712,-28.881 24.507,-61.992 22.952,-93.716 -1.53,-31.023 -11.966,-60.981 -29.084,-85.397 -16.823,-23.964 -40.264,-42.777 -66.455,-53.786 -51.213,-21.447 -114.305,-10.583 -153.353,26.02 -38.444,36.078 -51.897,96.448 -32.615,143.454 9.541,23.179 26.24,43.054 46.72,56.113 20.123,12.797 43.875,19.055 66.742,18.068 22.33,-0.965 43.85,-8.817 60.876,-21.588 16.588,-12.468 28.999,-29.647 35.528,-48.248"
                 style="fill:#3342a0;fill-opacity:1;fill-rule:nonzero;stroke:none"
                 id="path31792"
                 inkscape:connector-curvature="0" /></g></g></g><g
           id="g31798"><g
             id="g31800" /><g
             id="g31810"><g
               clip-path="url(#clipPath31804)"
               id="g31808"><path
                 d="m 249.97,257.992 c -1.142,3.946 -1.991,7.892 -2.491,11.786 10.501,-16.669 28.396,-29.288 48.59,-33.798 20.699,-4.586 43.872,-0.72 62.836,11 19.478,12.05 34.668,32.498 40.691,56.027 6.179,24.305 2.601,52.073 -10.796,75.264 -13.875,23.967 -38.467,43.048 -67.157,50.472 -29.62,7.645 -63.596,2.687 -91.078,-14.491 -28.131,-17.616 -49.167,-48.014 -55.794,-81.887 -6.702,-34.379 1.448,-72.08 22.056,-101.423 20.825,-29.595 54.294,-50.717 90.622,-57.259 36.749,-6.597 76.713,1.573 108.94,22.54 32.818,21.402 58.006,56.391 68.016,96.236 10.265,40.99 4.428,87.658 -17.77,126.826 -23,40.516 -63.951,73.108 -112.095,86.013 -49.685,13.284 -106.919,5.167 -152.728,-23.82 -46.708,-29.608 -80.822,-80.734 -90.387,-136.655 -9.584,-56.256 5.621,-116.768 40.043,-162.491 3.869,-9.523 8.445,-18.874 13.751,-27.929 -41.878,41.991 -66.464,101.786 -65.052,161.129 1.433,59.135 28.891,117.246 72.876,155.052 43.272,37.137 101.838,54.218 155.765,47.599 52.324,-6.448 99.99,-34.825 129.79,-74.108 28.767,-37.979 41.246,-86.115 36.069,-130.42 -5.055,-42.998 -26.635,-82.896 -57.936,-109.666 -30.673,-26.211 -71.068,-40.181 -110.164,-38.475 -38.644,1.717 -76.36,18.824 -102.33,46.51 -25.728,27.502 -39.863,65.516 -38.028,102.397 1.815,36.415 19.222,71.477 46.126,94.26 26.333,22.247 61.472,32.61 93.942,28.928 31.496,-3.591 60.388,-20.234 78.604,-43.658 17.593,-22.669 25.393,-51.669 22.299,-78.345 -3.01,-25.858 -16.189,-49.737 -35.132,-65.354 -18.446,-15.188 -42.477,-22.712 -65.151,-20.896 -22.155,1.784 -43.123,12.49 -56.927,28.636"
                 style="fill:#ec008c;fill-opacity:1;fill-rule:nonzero;stroke:none"
                 id="path31806"
                 inkscape:connector-curvature="0" /></g></g></g><g
           id="g31812"><g
             id="g31814" /><g
             id="g31824"><g
               clip-path="url(#clipPath31818)"
               id="g31822"><path
                 d="m 417.119,356.784 c -0.673,-4.848 -1.632,-9.602 -2.844,-14.191 -3.206,37.597 -27.537,75.016 -63.682,93.685 -37.336,19.215 -86.427,17.667 -124.04,-5.237 -38.252,-23.323 -63.723,-68.048 -64.858,-113.968 -1.076,-46.479 22.434,-93.847 60.871,-122.296 39.175,-28.988 94.168,-38.678 143.309,-23.658 25.279,7.748 49.218,21.737 68.95,40.802 20.125,19.467 35.952,44.313 45.197,71.998 9.386,28.31 11.955,59.706 6.574,90.376 -5.476,31.3 -19.224,61.901 -40.038,87.558 -42.58,52.396 -116.573,81.52 -186.593,70.575 -8.653,1.028 -17.452,1.539 -26.364,1.475 35.664,10.15 73.875,10.684 109.242,1.732 34.997,-8.853 67.221,-27.019 92.429,-51.452 24.778,-24.089 42.81,-54.297 52.263,-86.225 9.246,-31.271 10.313,-64.312 3.794,-94.885 -6.39,-29.919 -20.053,-57.638 -38.796,-80.17 -18.387,-22.069 -41.719,-39.309 -67.108,-50.192 -49.333,-21.08 -107.374,-17.147 -151.196,8.385 -42.953,25.066 -72.675,71.233 -77.094,119.342 -4.322,47.588 16.516,96.948 53.246,125.873 36.213,28.433 87.149,36.276 128.502,20.848 40.164,-14.988 70.313,-51.249 78.236,-90.375"
                 style="fill:#f8a171;fill-opacity:1;fill-rule:nonzero;stroke:none"
                 id="path31820"
                 inkscape:connector-curvature="0" /></g></g></g><g
           id="g31826"><g
             id="g31828" /><g
             id="g31838"><g
               clip-path="url(#clipPath31832)"
               id="g31836"><path
                 d="m 349.365,144.979 c -5.637,0.518 -11.2,1.286 -16.628,2.293 45.802,3.612 91.714,25.465 124.68,61.306 34.065,37.075 54.424,89.664 52.603,143.63 -1.926,55.844 -28.09,113.145 -72.802,152.345 -45.887,40.187 -110.991,60.568 -173.716,52.813 -7.608,1.093 -15.352,1.821 -23.149,2.159 63.466,14.268 132.391,-0.1 183.579,-36.913 49.958,-35.977 82.541,-92.626 89.757,-150.154 6.942,-55.593 -9.322,-111.867 -41.189,-153.219 -30.831,-39.944 -76.276,-66.486 -123.135,-74.26"
                 style="fill:#fcd7bf;fill-opacity:1;fill-rule:nonzero;stroke:none"
                 id="path31834"
                 inkscape:connector-curvature="0" /></g></g></g></g></g></g></svg>